<svg xmlns="http://www.w3.org/2000/svg" width="32" height="32" viewBox="0 0 32 32">
  <title>brnrd</title>
  <rect width="32" height="32" rx="6" fill="#0c0906"/>
  <!-- The mirrored R of bRnЯd, carrying the boot sequence's chromatic-aberration
       glitch: red and cyan ghosts offset behind a cream mark. -->
  <g fill="none" stroke-width="3.6" stroke-linecap="round" stroke-linejoin="round">
    <g stroke="#ff3b30" opacity="0.55" transform="translate(-0.9,0)">
      <path d="M23 7 V25"/>
      <path d="M23 7 H17.5 a5 5 0 0 0 0 10 H23"/>
      <path d="M18.6 17 L12.5 25"/>
    </g>
    <g stroke="#3ad8e6" opacity="0.55" transform="translate(0.9,0)">
      <path d="M23 7 V25"/>
      <path d="M23 7 H17.5 a5 5 0 0 0 0 10 H23"/>
      <path d="M18.6 17 L12.5 25"/>
    </g>
    <g stroke="#f2ece1">
      <path d="M23 7 V25"/>
      <path d="M23 7 H17.5 a5 5 0 0 0 0 10 H23"/>
      <path d="M18.6 17 L12.5 25"/>
    </g>
  </g>
</svg>
